# AST/ASF file generated using VICON BodyLanguage
# -----------------------------------------------
:version 1.10
:name VICON
:units
  mass 1.0
  length 0.45
  angle deg
:documentation
   .ast/.asf automatically generated from VICON data using
   VICON BodyBuilder and BodyLanguage model FoxedUp or BRILLIANT.MOD
:root
   order TX TY TZ RX RY RZ
   axis XYZ
   position 0 0 0  
   orientation 0 0 0 
:bonedata
  begin
     id 1 
     name lhipjoint
     direction 0.543289 -0.788407 0.288535 
     length 2.57127 
     axis 0 0 0  XYZ
  end
  begin
     id 2 
     name lfemur
     direction 0.34202 -0.939693 0  
     length 8.47298  
     axis 0 0 20  XYZ
    dof rx ry rz
    limits (-160.0 20.0)
           (-70.0 70.0)
           (-60.0 70.0)
  end
  begin
     id 3 
     name ltibia
     direction 0.34202 -0.939693 0   
     length 8.13367   
     axis 0 0 20   XYZ
    dof rx
    limits (-10.0 170.0)
  end
  begin
     id 4 
     name lfoot
     direction 0.114037 -0.313314 0.942778   
     length 2.67113   
     axis -90 7.62852e-016 20   XYZ
    dof rx rz
    limits (-45.0 90.0)
           (-70.0 20.0)
  end
  begin
     id 5 
     name ltoes
     direction 1.536e-011 -4.21847e-011 1   
     length 1.32217   
     axis -90 7.62852e-016 20   XYZ
    dof rx
    limits (-90.0 20.0)
  end
  begin
     id 6 
     name rhipjoint
     direction -0.571293 -0.770752 0.282074   
     length 2.63017  
     axis 0 0 0  XYZ 
  end
  begin
     id 7 
     name rfemur
     direction -0.34202 -0.939693 0   
     length 8.60885   
     axis 0 0 -20   XYZ
    dof rx ry rz
    limits (-160.0 20.0)
           (-70.0 70.0)
           (-70.0 60.0)
  end
  begin
     id 8 
     name rtibia
     direction -0.34202 -0.939693 0   
     length 8.07673   
     axis 0 0 -20   XYZ
    dof rx
    limits (-10.0 170.0)
 end
 begin
     id 9 
     name rfoot
     direction -0.121336 -0.333368 0.934956   
     length 2.81602  
     axis -90 -7.62852e-016 -20   XYZ
    dof rx rz
    limits (-45.0 90.0)
           (-20.0 70.0)
  end
  begin
     id 10 
     name rtoes
     direction -1.53491e-011 -4.21808e-011 1   
     length 1.38905   
     axis -90 -7.62852e-016 -20   XYZ
    dof rx
    limits (-90.0 20.0)
  end
  begin
     id 11 
     name lowerback
     direction 0.0136776 0.999869 -0.00861835   
     length 2.14087   
     axis 0 0 0   XYZ
    dof rx ry rz
    limits (-20.0 45.0)
           (-30.0 30.0)
           (-30.0 30.0)
  end
  begin
     id 12 
     name upperback
     direction -0.00789158 0.999804 0.0181308   
     length 2.14151   
     axis 0 0 0   XYZ
    dof rx ry rz
    limits (-20.0 45.0)
           (-30.0 30.0)
           (-30.0 30.0)
  end
  begin
     id 13 
     name thorax
     direction -0.0135231 0.999666 0.0220247   
     length 2.13644   
     axis 0 0 0   XYZ
    dof rx ry rz
    limits (-20.0 45.0)
           (-30.0 30.0)
           (-30.0 30.0)
  end
  begin
     id 14 
     name lowerneck
     direction -0.0392259 0.997317 0.0618018   
     length 1.65045   
     axis 0 0 0   XYZ
    dof rx ry rz
    limits (-20.0 45.0)
           (-30.0 30.0)
           (-30.0 30.0)
  end
  begin
     id 15 
     name upperneck
     direction 0.0765547 0.994276 -0.0745319   
     length 1.66045   
     axis 0 0 0   XYZ
    dof rx ry rz
    limits (-20.0 45.0)
           (-30.0 30.0)
           (-30.0 30.0)
  end
  begin
     id 16
     name head
     direction 0.0241564 0.999031 -0.036785  
     length 1.66594  
     axis 0 0 0   XYZ
    dof rx ry rz
    limits (-20.0 45.0)
           (-30.0 30.0)
           (-30.0 30.0)
  end
  begin
     id 17 
     name lclavicle
     direction 0.967398 0.249018 0.0461573  
     length 3.75176  
     axis 0 0 0   XYZ
    dof ry rz
    limits (-20.0 10.0)
           (0.0 20.0)
  end
  begin
     id 18 
     name lhumerus
     direction 1 -4.48963e-011 -3.05005e-027   
     length 5.93342   
     axis 180 -30 -90   XYZ
    dof rx ry rz
    limits (-60.0 90.0)
           (-90.0 90.0)
           (-90.0 90.0)
  end
  begin
     id 19
     name lradius
     direction 1 -4.48957e-011 1.07006e-026   
     length 3.94763   
     axis 180 -30 -90   XYZ
    dof rx
    limits (-10.0 170.0)
  end
  begin
     id 20
     name lwrist
     direction 1 -4.48978e-011 1.92422e-026   
     length 1.97382   
     axis -1.18182e-014 90 90   XYZ
    dof ry
    limits (-180.0 0.0)
 end
  begin
     id 21 
     name lhand
     direction 1 -4.48931e-011 3.84844e-026   
     length 0.560187   
     axis -2.45563e-014 90 90   XYZ
    dof rx rz
    limits (-90.0 90.0)
           (-45.0 45.0)
  end
  begin
     id 22 
     name lfingers
     direction 1 -4.48952e-011 7.69687e-026   
     length 0.451637   
     axis -4.91126e-014 90 90   XYZ
    dof rx
    limits (0.0 90.0)
  end
  begin
     id 23
     name lthumb
     direction 0.707107 -6.34901e-011 0.707107   
     length 0.648463   
     axis -90 45 2.85299e-015   XYZ
    dof rx rz
    limits (-45.0 45.0)
           (-45.0 45.0)
  end
  begin
     id 24 
     name rclavicle
     direction -0.965946 0.258716 0.00371831   
     length 3.63667  
     axis 0 0 0   XYZ 
    dof ry rz
    limits (-10.0 20.0)
           (-20.0 0.0)
  end
  begin
     id 25 
     name rhumerus
     direction -1 -4.48966e-011 -1.78361e-028  
     length 6.28647   
     axis 180 30 90   XYZ
    dof rx ry rz
    limits (-90.0 60.0)
           (-90.0 90.0)
           (-90.0 90.0)
  end
  begin
     id 26 
     name rradius
     direction -1 -4.48961e-011 1.05248e-026   
     length 3.81645   
     axis 180 30 90   XYZ
    dof rx
    limits (-10.0 170.0)
  end
  begin
     id 27 
     name rwrist
     direction -1 -4.48979e-011 1.92422e-026   
     length 1.90822   
     axis -1.18182e-014 -90 -90   XYZ
    dof ry
    limits (-180.0 0.0)
  end
  begin
     id 28
     name rhand
     direction -1 -4.48937e-011 3.84844e-026   
     length 0.646185   
     axis -2.45563e-014 -90 -90   XYZ
    dof rx rz
    limits (-90.0 90.0)
           (-45.0 45.0)
  end
  begin
     id 29
     name rfingers
     direction -1 -4.48953e-011 7.69687e-026   
     length 0.520971   
     axis -4.91126e-014 -90 -90   XYZ
    dof rx
    limits (0.0 90.0)
  end
  begin
     id 30
     name rthumb
     direction -0.707107 -6.3494e-011 0.707107   
     length 0.748013   
     axis -90 -45 -2.85299e-015   XYZ
    dof rx rz
    limits (-45.0 45.0)
           (-45.0 45.0)
  end
:hierarchy
  begin
    root lhipjoint rhipjoint lowerback
    lhipjoint lfemur
    lfemur ltibia
    ltibia lfoot
    lfoot ltoes
    rhipjoint rfemur
    rfemur rtibia
    rtibia rfoot
    rfoot rtoes
    lowerback upperback
    upperback thorax
    thorax lowerneck lclavicle rclavicle
    lowerneck upperneck
    upperneck head
    lclavicle lhumerus
    lhumerus lradius
    lradius lwrist
    lwrist lhand lthumb
    lhand lfingers
    rclavicle rhumerus
    rhumerus rradius
    rradius rwrist
    rwrist rhand rthumb
    rhand rfingers
  end

#!OML:ASF H:\HAZMAT1\Patient Classification 1\Patient 3\Session 1\dancer.ASF
:FULLY-SPECIFIED
:DEGREES
178
upperback 2.202460 2.493310 -3.772180
rfoot -14.061200 -8.331980
lradius 21.709499
lthumb 13.391500 44.936600
rradius 33.538799
lwrist -11.088600
rhand -31.749100 -22.703899
rhumerus -8.362320 -24.919300 -23.071400
lowerneck -5.357350 -2.264070 0.717018
lhand -12.690600 15.387000
ltibia 29.251499
head 8.356410 -2.882350 1.934620
rwrist -11.994100
lfingers 7.125020
rtoes 3.047420
lowerback 3.254060 1.792580 7.636450
rfingers 7.125020
lclavicle 0.000000 -0.000000
upperneck 23.247999 -6.610360 8.131450
rfemur -14.342900 8.985180 31.992201
thorax 0.974478 1.344550 -8.320950
rclavicle 0.000000 -0.000000
rtibia 25.519501
lfoot 23.951700 4.357740
lhumerus -30.882000 26.040001 -0.708262
rthumb -5.006500 -52.624802
root 44.083698 18.715099 16.441999 360.204010 209.376999 -1069.219971
ltoes 34.309898
lfemur -79.983101 -24.658800 -12.720500
179
upperback 1.715550 -1.759100 -6.755610
rfoot -16.989401 -15.579300
lradius 27.109100
lthumb 12.350400 43.061901
rradius 39.182400
lwrist -8.844900
rhand -39.925400 -24.886101
rhumerus -14.925400 -21.092800 -18.127300
lowerneck -5.943710 0.970774 2.472350
lhand -13.770500 13.446700
ltibia 79.960701
head 8.762480 -0.845070 1.886010
rwrist -8.111240
lfingers 7.125020
rtoes 14.384300
lowerback 3.520320 -1.093790 2.081010
rfingers 7.125020
lclavicle -0.000000 -0.000000
upperneck 24.657499 -2.544030 7.779670
rfemur -20.611099 6.065160 28.793800
thorax -0.474887 -0.992748 -8.174000
rclavicle -0.000000 -0.000000
rtibia 28.533899
lfoot 29.455299 33.355999
lhumerus -12.721500 17.563999 9.303000
rthumb -12.895900 -54.467602
root 45.106400 18.780300 16.151600 367.666992 214.729004 -1077.030029
ltoes 48.014099
lfemur -80.179100 -0.720413 8.318490
180
upperback 1.961700 -7.963530 -6.755680
rfoot -22.211201 -26.291000
lradius 28.763000
lthumb 10.772700 42.687000
rradius 47.053101
lwrist -11.280200
rhand -46.649700 -24.585600
rhumerus -27.882999 -20.908001 -8.347170
lowerneck -6.709880 1.564940 2.069710
lhand -15.406500 12.983200
ltibia 71.931900
head 8.456650 -0.296517 2.329320
rwrist -4.277180
lfingers 7.125020
rtoes 17.813900
lowerback 3.533990 -5.631550 -0.934193
rfingers 7.125020
lclavicle 0.000000 0.000000
upperneck 23.433800 -1.585930 8.645110
rfemur -30.037901 6.717930 24.417999
thorax -0.789560 -4.137590 -6.099450
rclavicle 0.000000 0.000000
rtibia 36.216099
lfoot 33.151001 27.733400
lhumerus 1.539600 14.865300 14.821800
rthumb -19.370501 -53.640800
root 45.837700 18.661301 15.939700 376.704987 228.001007 -1084.310059
ltoes 48.921200
lfemur -42.880699 -11.162400 21.895300
181
upperback 1.701340 -10.825500 -3.555820
rfoot -27.306299 -31.038900
lradius 25.875401
lthumb 3.295920 43.724098
rradius 55.590698
lwrist -14.887700
rhand -40.796902 5.889370
rhumerus -31.325600 -27.787600 -6.180270
lowerneck -7.778920 -0.154738 -0.131987
lhand -23.152399 13.769900
ltibia 48.910500
head 8.019810 -1.028540 2.053690
rwrist -29.837000
lfingers 7.125020
rtoes 17.548201
lowerback 2.536550 -8.014280 0.226733
rfingers 7.125020
lclavicle -0.000000 0.000000
upperneck 21.499201 -2.728280 7.037210
rfemur -41.720299 7.988850 17.994499
thorax -0.380361 -5.460560 -3.405550
rclavicle -0.000000 0.000000
rtibia 46.766998
lfoot -7.010410 -12.371900
lhumerus 8.668720 15.920400 19.439301
rthumb -13.735900 -23.637300
root 46.282001 18.302999 16.393400 386.627991 234.074005 -1091.630005
ltoes 14.234100
lfemur -19.538601 -17.935200 -9.256830
182
upperback 1.778450 -7.830250 -3.096540
rfoot -17.258499 -24.673300
lradius 25.734400
lthumb 2.898650 45.523399
rradius 55.585098
lwrist -13.919500
rhand -39.334702 -3.062560
rhumerus -30.199800 -30.431499 -16.037500
lowerneck -6.475480 -1.248790 -0.912603
lhand -23.563801 15.563400
ltibia 36.213799
head 7.484260 -2.050820 3.654530
rwrist -30.853800
lfingers 7.125020
rtoes 10.211400
lowerback 2.472570 -5.778530 -0.278225
rfingers 7.125020
lclavicle 0.000000 -0.000000
upperneck 19.767401 -5.305170 12.212400
rfemur -51.642399 15.363600 16.418400
thorax 0.054030 -3.955040 -2.810990
rclavicle 0.000000 -0.000000
rtibia 47.192001
lfoot -24.330400 -9.320810
lhumerus 15.264900 15.412600 16.694099
rthumb -12.326400 -32.679199
root 47.136398 18.156500 17.203400 384.713989 224.283997 -1084.689941
ltoes 24.906099
lfemur -27.315599 -30.595800 -20.867800
183
upperback 1.576090 -3.652100 1.823890
rfoot -10.919200 2.473660
lradius 22.320999
lthumb 6.484950 46.668598
rradius 39.517101
lwrist -17.456900
rhand -37.614700 -14.360400
rhumerus -3.721530 -22.013599 -28.984699
lowerneck -7.983300 -5.407870 -6.097330
lhand -19.849701 16.787901
ltibia 38.304199
head 6.981810 -4.300060 5.205630
rwrist -20.133301
lfingers 7.125020
rtoes 2.662160
lowerback 4.523710 -2.855080 4.455860
rfingers 7.125020
lclavicle 0.000000 0.000000
upperneck 14.944200 -9.987160 15.771300
rfemur -60.416000 -10.998100 17.419300
thorax -1.065900 -1.850570 -0.415968
rclavicle 0.000000 0.000000
rtibia 40.990700
lfoot -20.204100 5.654270
lhumerus 13.657400 18.853600 17.035801
rthumb -10.667700 -44.069599
root 48.098400 18.614300 18.887600 388.837006 212.292999 -1073.089966
ltoes 18.270000
lfemur -47.472198 -20.191099 -8.704870
184
upperback -0.632348 3.163480 6.195790
rfoot -11.994700 9.434430
lradius 20.075800
lthumb 12.670300 56.698299
rradius 22.227501
lwrist -17.172800
rhand -35.056499 -23.036600
rhumerus 22.601601 -1.211790 -44.089199
lowerneck -3.528490 -9.395050 -6.268220
lhand -13.438600 27.102600
ltibia -0.000000
head 5.058160 -6.630870 2.339530
rwrist -14.869900
lfingers 7.125020
rtoes 3.489370
lowerback 2.617420 2.497030 10.191100
rfingers 7.125020
lclavicle 0.000000 0.000000
upperneck 11.907200 -13.524100 7.020000
rfemur -50.387699 -28.575600 14.587900
thorax -1.896270 1.213230 0.629303
rclavicle 0.000000 0.000000
rtibia 60.179001
lfoot -0.131176 16.099899
lhumerus -13.610300 16.300301 0.242734
rthumb -8.199290 -52.857601
root 47.625900 19.886801 19.568701 391.647003 198.404007 -1068.310059
ltoes 20.938601
lfemur -32.828701 -13.937200 -7.586590
185
upperback -0.881096 7.394170 5.038110
rfoot -18.935101 14.924500
lradius 19.076599
lthumb 15.738400 60.461498
rradius 28.380301
lwrist -16.981800
rhand -24.216700 -14.528200
rhumerus 32.920898 36.111500 -67.690598
lowerneck -1.933790 -13.008800 -10.012800
lhand -10.254700 31.081400
ltibia -0.000000
head 3.331940 -8.680690 5.089610
rwrist 5.647610
lfingers 7.125020
rtoes 23.026501
lowerback 2.100340 5.727810 9.805220
rfingers 7.125020
lclavicle -0.000000 0.000000
upperneck 2.613320 -17.823900 14.708500
rfemur -27.347000 -27.962000 13.118500
thorax -1.496140 3.317170 -0.403386
rclavicle -0.000000 0.000000
rtibia 56.683399
lfoot 7.533860 -7.685780
lhumerus -46.072601 9.759090 -4.176880
rthumb 2.268040 -44.495899
root 48.402500 20.007401 19.603201 402.865997 193.888000 -1068.280029
ltoes 17.100599
lfemur -46.258400 -17.769400 3.848250
